<svg width="32" height="32" viewBox="0 0 32 32" fill="none" xmlns="http://www.w3.org/2000/svg">
<path opacity="0.4" d="M13.6317 22.4236C13.3992 22.8041 13.2549 23.2252 13.2549 23.7099V29.1924C7.208 27.9269 2.66663 22.5648 2.66663 16.142C2.66663 8.77813 8.63616 2.80859 16 2.80859C23.3637 2.80859 29.3333 8.77813 29.3333 16.142C29.3333 22.5648 24.792 27.9269 18.745 29.1924V23.7099C18.745 23.2252 18.6008 22.8041 18.3682 22.4236C18.2088 22.1625 18.318 21.7921 18.6062 21.7104C20.9929 21.0328 22.6666 19.9433 22.6666 16.3293C22.6666 15.3899 22.3685 14.5065 21.8445 13.7377C21.5838 13.3551 21.5904 13.3905 21.6994 12.9382C21.891 12.1428 21.9064 11.3049 21.6922 10.5233C21.6218 10.2664 21.4709 10.1165 21.1977 10.1455C20.8434 10.183 20.23 10.3508 19.32 10.9378C18.9625 11.1685 18.7837 11.2838 18.6262 11.3096C18.4688 11.3354 18.2584 11.2814 17.8373 11.1733C17.2617 11.0255 16.6685 10.9462 16 10.9462C15.3314 10.9462 14.7382 11.0255 14.1626 11.1733C13.7417 11.2814 13.5312 11.3354 13.3737 11.3096C13.2162 11.2838 13.0375 11.1685 12.6799 10.9378C11.77 10.3508 11.1565 10.183 10.8022 10.1455C10.529 10.1165 10.3781 10.2664 10.3077 10.5233C10.0935 11.3049 10.1089 12.1428 10.3005 12.9382C10.4095 13.3905 10.4161 13.3551 10.1553 13.7377C9.63137 14.5065 9.33329 15.3899 9.33329 16.3293C9.33329 19.9433 11.007 21.0328 13.3937 21.7104C13.682 21.7921 13.7912 22.1625 13.6317 22.4236Z" fill="#141B34"/>
<path d="M8.68975 22.8179C9.21565 23.5877 10.8117 25.2307 12.9889 25.6447M13.1523 29.3337C11.7811 29.1078 2.66663 26.1413 2.66663 16.1238C2.66663 6.75138 10.6692 2.66699 16.001 2.66699C21.3328 2.66699 29.3333 6.75138 29.3333 16.1238C29.3333 26.1413 20.2189 29.1078 18.8476 29.3337C18.8476 29.3337 18.5689 24.7771 18.7316 23.9962C18.8941 23.2154 18.3402 21.9587 18.3402 21.9587C19.6349 21.4743 21.6057 20.7799 22.2668 18.9169C22.7797 17.4713 23.1024 15.3721 21.6677 13.3989C21.6677 13.3989 22.0424 10.2111 21.3328 10.0876C20.6233 9.96415 18.533 11.3496 18.533 11.3496C17.9242 11.177 16.5657 10.8467 16.0024 10.9062C15.4389 10.8467 14.0757 11.177 13.4669 11.3496C13.4669 11.3496 11.3766 9.96415 10.6671 10.0876C9.9576 10.2111 10.3322 13.3989 10.3322 13.3989C8.89751 15.3721 9.22017 17.4713 9.73316 18.9169C10.3943 20.7799 12.3651 21.4743 13.6597 21.9587C13.6597 21.9587 13.1059 23.2154 13.2684 23.9962C13.431 24.7771 13.1523 29.3337 13.1523 29.3337Z" stroke="#141B34" stroke-width="2" stroke-linecap="round" stroke-linejoin="round"/>
</svg>
