<svg width="32" height="32" viewBox="0 0 32 32" fill="none" xmlns="http://www.w3.org/2000/svg">
<path opacity="0.4" d="M3.33337 15.9997C3.33337 10.0286 3.33337 7.04299 5.18836 5.18799C7.04336 3.33301 10.0289 3.33301 16 3.33301C21.9711 3.33301 24.9567 3.33301 26.8118 5.18799C28.6667 7.04299 28.6667 10.0286 28.6667 15.9997C28.6667 21.9707 28.6667 24.9563 26.8118 26.8114C24.9567 28.6663 21.9711 28.6663 16 28.6663C10.0289 28.6663 7.04336 28.6663 5.18836 26.8114C3.33337 24.9563 3.33337 21.9707 3.33337 15.9997Z" fill="#141B34"/>
<path d="M3.33337 15.9997C3.33337 10.0286 3.33337 7.04299 5.18836 5.18799C7.04336 3.33301 10.0289 3.33301 16 3.33301C21.9711 3.33301 24.9567 3.33301 26.8118 5.18799C28.6667 7.04299 28.6667 10.0286 28.6667 15.9997C28.6667 21.9707 28.6667 24.9563 26.8118 26.8114C24.9567 28.6663 21.9711 28.6663 16 28.6663C10.0289 28.6663 7.04336 28.6663 5.18836 26.8114C3.33337 24.9563 3.33337 21.9707 3.33337 15.9997Z" stroke="#141B34" stroke-width="1.5" stroke-linejoin="round"/>
<path d="M16 21.3337L14.8452 17.6003M14.8452 17.6003L13.8796 14.4789C13.0935 11.9376 12.7004 10.667 12 10.667C11.2996 10.667 10.9065 11.9376 10.1204 14.4789L9.15485 17.6003M14.8452 17.6003H9.15485M8 21.3337L9.15485 17.6003" stroke="#141B34" stroke-width="1.5" stroke-linecap="round" stroke-linejoin="round"/>
<path d="M18.6666 17.1591V18.6663C18.6666 20.1391 19.8605 21.333 21.3333 21.333C22.3238 21.333 23.1882 20.7929 23.6481 19.9911M18.6666 17.1591V15.9997C18.6666 14.5269 19.8605 13.333 21.3333 13.333C22.8061 13.333 24 14.5269 24 15.9997C24 16.6401 23.4808 17.1591 22.8405 17.1591H18.6666Z" stroke="#141B34" stroke-width="1.5" stroke-linecap="round" stroke-linejoin="round"/>
</svg>
