<svg width="32" height="32" viewBox="0 0 32 32" fill="none" xmlns="http://www.w3.org/2000/svg">
<path opacity="0.4" d="M9.94267 23.3228L4 8H8.66667L14 23.058L13.924 23.2699C13.1131 25.5279 12.7077 26.6568 11.9755 26.6667C11.2433 26.6764 10.8097 25.5585 9.94267 23.3228Z" fill="#141B34"/>
<path opacity="0.4" d="M20.6093 23.3228L14.6666 8H19.3333L24.6666 23.058L24.5906 23.2699C23.7797 25.5279 23.3742 26.6568 22.6421 26.6667C21.91 26.6764 21.4764 25.5585 20.6093 23.3228Z" fill="#141B34"/>
<path d="M2.66663 8H3.99996M3.99996 8L9.94263 23.3228C10.8097 25.5585 11.2432 26.6764 11.9754 26.6667C12.7076 26.6568 13.1131 25.5279 13.924 23.2699L14 23.058M3.99996 8H8.66663M14 23.058L8.66663 8M14 23.058L17.088 14.6667M8.66663 8H9.94263" stroke="#141B34" stroke-width="1.5" stroke-linecap="round" stroke-linejoin="round"/>
<path d="M13.3334 8H14.6667M14.6667 8L20.6094 23.3228C21.4764 25.5585 21.91 26.6764 22.6422 26.6667C23.3743 26.6568 23.7798 25.5279 24.5907 23.2699L24.6667 23.058M14.6667 8H19.3334M24.6667 23.058L19.3334 8M24.6667 23.058L27.3718 15.5253M19.3334 8H20.6094M27.3718 15.5253L28.717 12.3132C29.2554 10.8324 29.4447 9.24985 29.2706 7.68591C29.0618 5.8106 28.2102 4 26.0016 4C23.951 4 22.9468 6.29696 24.2531 7.85817C26.3602 10.3767 28.2292 13.1672 27.3718 15.5253Z" stroke="#141B34" stroke-width="1.5" stroke-linecap="round" stroke-linejoin="round"/>
</svg>
