<svg width="196" height="100" viewBox="0 0 196 100" fill="none" xmlns="http://www.w3.org/2000/svg">
<rect x="63" y="16" width="70" height="68" rx="34" stroke="#000C38" stroke-width="5"/>
<path d="M79.7202 62.5H73.2969L81.6399 37.7727H89.5966L97.9396 62.5H91.5163L85.7088 44.0028H85.5156L79.7202 62.5ZM78.8629 52.7685H92.2891V57.3082H78.8629V52.7685ZM115.561 37.7727H121.526V53.7223C121.526 55.5656 121.087 57.1714 120.21 58.5398C119.333 59.9001 118.109 60.9545 116.539 61.7031C114.97 62.4437 113.147 62.8139 111.07 62.8139C108.969 62.8139 107.134 62.4437 105.564 61.7031C103.995 60.9545 102.775 59.9001 101.906 58.5398C101.037 57.1714 100.602 55.5656 100.602 53.7223V37.7727H106.578V53.2031C106.578 54.0563 106.764 54.817 107.134 55.4851C107.512 56.1532 108.039 56.6764 108.716 57.0547C109.392 57.433 110.176 57.6222 111.07 57.6222C111.963 57.6222 112.744 57.433 113.412 57.0547C114.088 56.6764 114.616 56.1532 114.994 55.4851C115.372 54.817 115.561 54.0563 115.561 53.2031V37.7727Z" fill="#000C38"/>
</svg>
