<svg width="196" height="100" viewBox="0 0 196 100" fill="none" xmlns="http://www.w3.org/2000/svg">
<mask id="mask0_101_47" style="mask-type:luminance" maskUnits="userSpaceOnUse" x="47" y="41" width="20" height="16">
<path d="M47.814 41.8129H66.1938V56.2033H47.814V41.8129Z" fill="white"/>
</mask>
<g mask="url(#mask0_101_47)">
<mask id="mask1_101_47" style="mask-type:luminance" maskUnits="userSpaceOnUse" x="47" y="38" width="24" height="26">
<path d="M52.9291 38.9277L70.6602 44.1588L65.0212 63.2736L47.29 58.0425L52.9291 38.9277Z" fill="white"/>
</mask>
<g mask="url(#mask1_101_47)">
<mask id="mask2_101_47" style="mask-type:luminance" maskUnits="userSpaceOnUse" x="47" y="38" width="24" height="26">
<path d="M52.9291 38.9277L70.6602 44.1588L65.0212 63.2736L47.29 58.0425L52.9291 38.9277Z" fill="white"/>
</mask>
<g mask="url(#mask2_101_47)">
<path d="M66.1366 55.3776L63.7016 45.2836L61.7551 47.135L62.7925 51.4355C60.8916 51.1024 58.6531 51.0576 56.3222 51.3066L63.5063 44.4743L62.8763 41.8627L47.8467 56.1568C49.6633 55.1633 52.0957 54.3335 54.8287 53.8629C60.0025 52.9721 64.5927 53.6539 66.1366 55.3776Z" fill="#0A0085"/>
</g>
</g>
</g>
<mask id="mask3_101_47" style="mask-type:luminance" maskUnits="userSpaceOnUse" x="48" y="54" width="19" height="5">
<path d="M48.313 54.4222H66.6928V58.4117H48.313V54.4222Z" fill="white"/>
</mask>
<g mask="url(#mask3_101_47)">
<mask id="mask4_101_47" style="mask-type:luminance" maskUnits="userSpaceOnUse" x="47" y="38" width="24" height="26">
<path d="M52.9291 38.9277L70.6602 44.1588L65.0212 63.2736L47.29 58.0425L52.9291 38.9277Z" fill="white"/>
</mask>
<g mask="url(#mask4_101_47)">
<mask id="mask5_101_47" style="mask-type:luminance" maskUnits="userSpaceOnUse" x="47" y="38" width="24" height="26">
<path d="M52.9291 38.9277L70.6602 44.1588L65.0212 63.2736L47.29 58.0425L52.9291 38.9277Z" fill="white"/>
</mask>
<g mask="url(#mask5_101_47)">
<path d="M66.1784 55.5397C64.2582 54.2151 59.8717 54.0882 55.1059 55.3997C52.4322 56.1355 50.0927 57.1994 48.3818 58.3662C50.1987 57.3727 52.6309 56.5429 55.3639 56.0723C60.5379 55.1813 65.1281 55.8633 66.672 57.5867L66.1784 55.5397Z" fill="#0A0085"/>
</g>
</g>
</g>
<path d="M139.716 41.6426H136.576V57.0975H139.716V51.0372H144.949V57.0975H148.186V41.6426H144.949V47.7028H139.716V41.6426Z" fill="#0A0085" stroke="#0A0085"/>
<path d="M85.3442 56.9514L77.7993 41.5938H80.7199C80.7199 41.5938 80.9621 41.623 81.1337 41.7399C81.3627 41.8958 81.5961 42.3483 81.5961 42.3483L85.3442 49.4795L86.5125 47.4107L83.7379 41.5938H86.2691C86.2691 41.5938 86.7625 41.5532 87.0236 41.6912C87.2808 41.8271 87.486 42.2266 87.486 42.2266L91.4045 49.4795L95.0066 42.3483C95.0066 42.3483 95.2007 41.7715 95.542 41.6912C95.9558 41.5938 96.3939 41.5938 96.3939 41.5938H98.779L91.2585 56.9514L88.3135 51.0128L85.3442 56.9514Z" fill="#0A0085" stroke="#0A0085"/>
<path d="M111.264 45.0499V41.8129H101.432C101.432 41.8129 100.19 41.8129 99.2413 42.6404C98.2921 43.4679 98.3408 45.0499 98.3408 45.0499H103.452V57.3408H106.786V45.0499H111.264Z" fill="#0A0085" stroke="#0A0085"/>
<path d="M67.2358 44.7335V41.6182H74.148C74.148 41.6182 78.5289 41.4235 78.8209 45.9504C79.113 50.4773 74.148 50.8668 74.148 50.8668H70.3512V56.927H67.2358V47.7028H74.148C74.148 47.7028 75.6083 47.5567 75.6326 46.2181C75.6569 44.8795 74.148 44.7335 74.148 44.7335H67.2358Z" fill="#0A0085" stroke="#0A0085"/>
<path d="M123.044 41.6912H111.824V57H123.044V53.8604H115.013V50.8911H120.683V47.7514H115.013V44.7578H123.044V41.6912Z" fill="#0A0085" stroke="#0A0085"/>
<path d="M135.652 44.4658V41.6182H129.64C129.64 41.6182 127.538 41.8412 126.403 42.4943C125.313 43.1212 124.091 44.7335 124.091 44.7335H135.238L135.652 44.4658Z" fill="#0A0085" stroke="#0A0085"/>
<path d="M127.205 46.7535H124.017V49.8932C124.017 49.8932 124.017 52.2297 125.867 54.5418C127.717 56.854 130.929 57.0487 130.929 57.0487H135.675V53.8847H130.929C128.252 53.2519 127.205 51.6942 127.205 49.8932V46.7535Z" fill="#0A0085" stroke="#0A0085"/>
</svg>
