<svg width="198" height="100" viewBox="0 0 198 100" fill="none" xmlns="http://www.w3.org/2000/svg">
<g clip-path="url(#clip0_53_1620)">
<path d="M0.5 34.7044V38.3969L23.3401 38.4447C43.4699 38.4686 46.2518 38.5044 46.8248 38.6597C48.2695 39.066 49.1888 39.7711 49.7142 40.8585C50.538 42.6031 49.7858 44.6226 47.971 45.5428C46.5861 46.2478 47.8636 46.2119 23.161 46.2597L0.5 46.3195V50V53.6925L23.161 53.7403C47.9591 53.7881 46.5622 53.7403 47.9949 54.4692C49.356 55.1623 49.9291 55.9868 50.0246 57.361C50.1559 59.4164 48.9978 60.7189 46.5025 61.3164C45.7742 61.4956 43.4221 61.5195 23.1013 61.5553L0.5 61.6031V65.3075V69L21.4895 68.9881C33.0229 68.9881 43.5415 68.9403 44.8548 68.8805C48.2934 68.7371 50.0485 68.3547 52.2573 67.2673C55.063 65.8811 57.2599 63.2642 58.0718 60.3126C58.2867 59.5478 58.3344 59.0579 58.3344 57.5881C58.3225 55.9868 58.2867 55.6881 58.0001 54.7201C57.5703 53.322 56.9017 52.0553 55.9704 50.8843L55.2063 49.9403L55.6481 49.4623C56.7226 48.2912 57.5822 46.7138 58.0718 45.017C58.2986 44.2283 58.3464 43.8101 58.3344 42.2925C58.3225 40.7031 58.2867 40.3805 58.0001 39.4245C56.5435 34.6208 52.3767 31.6572 46.3234 31.1195C45.4876 31.0478 36.5928 31 22.7431 31H0.5V34.7044Z" fill="#D70C19"/>
<path d="M67.0384 38.4925C67.0743 42.6271 67.1698 46.5108 67.2414 47.1322C67.8264 52.2347 69.7845 54.1227 75.0617 54.6605C75.8019 54.7322 79.8255 54.8278 84.2909 54.8636L92.1947 54.9353V51.1473V47.3712H86.3803C83.1686 47.3712 80.0763 47.3114 79.4912 47.2517C77.1392 46.9768 76.0646 46.0208 75.7303 43.9057C75.6467 43.4397 75.599 40.7391 75.599 37.0586V31.0001H71.2889H66.9668L67.0384 38.4925Z" fill="#D70C19"/>
<path d="M122.282 36.9031C122.282 43.0811 122.21 44.2403 121.78 45.256C121.482 45.961 120.718 46.6421 119.942 46.9289C118.831 47.3233 117.434 47.3711 106.558 47.3711H95.7764V58.1855V69H100.791H105.805V61.9497V54.8994L110.199 54.8874C116.778 54.8874 122.747 54.7082 124.013 54.4931C127.75 53.8478 129.529 52.3302 130.281 49.1516C130.687 47.4189 130.759 45.7459 130.759 38.2535V31H126.52H122.282V36.9031Z" fill="#D70C19"/>
<path d="M139.475 34.7044V38.4088H153.897C169.18 38.4208 175.675 38.5283 177.919 38.8271C181.262 39.2692 183.829 40.4044 185.835 42.3403C187.256 43.7026 188.235 45.3158 188.796 47.1919C189.107 48.2554 189.238 50.6334 189.035 51.6969C188.211 56.0466 185.167 59.2849 180.666 60.5875C177.86 61.4 176.212 61.4717 156.166 61.5554L139.475 61.6271V65.3315V69.0359L156.584 68.9642C176.534 68.8805 178.206 68.8208 181.621 68.1516C187.937 66.8969 193.25 62.9535 195.757 57.6478C198.766 51.2548 197.81 43.9057 193.274 38.4686C189.978 34.5371 185.202 32.1472 179.161 31.4183C176.797 31.1315 169.526 31.012 153.718 31H139.475V34.7044Z" fill="#D70C19"/>
</g>
<defs>
<clipPath id="clip0_53_1620">
<rect width="197" height="38" fill="white" transform="translate(0.5 31)"/>
</clipPath>
</defs>
</svg>
