<svg width="196" height="100" viewBox="0 0 196 100" fill="none" xmlns="http://www.w3.org/2000/svg">
<path d="M97.9996 51.6983C90.6976 51.6983 84.7568 45.5854 84.7568 38.0718C84.7568 30.5589 90.6976 24.4464 97.9996 24.4464C105.302 24.4464 111.243 30.5586 111.243 38.0718C111.243 45.5854 105.302 51.6983 97.9996 51.6983ZM97.9996 25.4802C91.2516 25.4802 85.7616 31.1289 85.7616 38.0718C85.7616 45.0151 91.2516 50.6645 97.9996 50.6645C104.748 50.6645 110.239 45.0151 110.239 38.0718C110.239 31.1289 104.748 25.4802 97.9996 25.4802Z" fill="#029AA1"/>
<path d="M105.983 37.4271C105.958 37.0952 105.919 36.7679 105.857 36.4481C105.809 36.2028 105.748 35.9619 105.679 35.7245C105.611 35.4885 105.531 35.2579 105.443 35.0316C105.37 34.842 105.288 34.658 105.201 34.4757C105.111 34.2859 105.016 34.1002 104.912 33.9189C104.822 33.7614 104.734 33.6029 104.635 33.4527C104.532 33.2966 104.419 33.1484 104.306 33.0003C104.207 32.8697 104.103 32.7435 103.996 32.6195C103.881 32.4858 103.767 32.3511 103.644 32.2253C103.538 32.1157 103.422 32.0147 103.309 31.9114C103.186 31.799 103.061 31.6895 102.931 31.5851C102.816 31.492 102.699 31.4007 102.578 31.3142C102.448 31.2201 102.313 31.134 102.177 31.0485C102.055 30.9714 101.935 30.8897 101.809 30.8191C101.671 30.7422 101.528 30.6774 101.386 30.6092C101.257 30.5475 101.13 30.4858 100.998 30.4311C100.854 30.3711 100.707 30.3167 100.558 30.265C100.424 30.2184 100.288 30.1764 100.15 30.1368C99.9991 30.0934 99.8481 30.0499 99.6933 30.0158C99.5527 29.9845 99.4093 29.9635 99.2663 29.9397C99.1076 29.9138 98.9512 29.8839 98.7897 29.8677C98.6424 29.8528 98.4917 29.8508 98.3416 29.8446C98.2277 29.8394 98.1152 29.8267 98 29.8267C97.9464 29.8267 97.8952 29.8339 97.8412 29.8346C97.6848 29.838 97.5298 29.8466 97.3754 29.8591C97.1975 29.8735 97.022 29.8956 96.8472 29.9218C96.6838 29.9462 96.5193 29.9672 96.3592 30.0014C96.1686 30.0424 95.9831 30.0958 95.7976 30.1506C95.6194 30.2029 95.4452 30.2639 95.2721 30.3287C95.0678 30.4052 94.8675 30.4883 94.6709 30.5809C94.4773 30.6726 94.2857 30.7684 94.0998 30.8752C93.8691 31.0086 93.6454 31.1536 93.4283 31.3087C93.1979 31.4741 92.9779 31.6533 92.7655 31.8425C92.4664 32.1088 92.1864 32.3969 91.9282 32.7056C90.7979 34.0574 90.0905 35.7879 90.0044 37.6855C89.9987 37.8147 89.9854 37.9419 89.9854 38.0725C89.9854 38.3612 90.0004 38.6466 90.0289 38.927C90.0577 39.2144 90.1026 39.4956 90.1592 39.773C90.2134 40.04 90.2804 40.3012 90.3595 40.559C90.4241 40.7681 90.4991 40.9721 90.5788 41.1741C90.6606 41.3801 90.7533 41.58 90.8498 41.7771C90.9328 41.9459 91.0216 42.1096 91.1154 42.2726C91.2142 42.4435 91.3153 42.6116 91.4252 42.7739C91.5203 42.9145 91.6208 43.0513 91.7236 43.185C91.8334 43.3277 91.95 43.4638 92.0682 43.5975C92.1734 43.7174 92.2775 43.837 92.3891 43.95C92.508 44.0699 92.6332 44.1836 92.7592 44.296C92.8717 44.3962 92.9869 44.4917 93.1045 44.5861C93.2321 44.6884 93.359 44.7908 93.493 44.8848C93.6115 44.9682 93.7365 45.0416 93.8597 45.1185C93.9947 45.2025 94.1286 45.2873 94.269 45.3635C94.3939 45.4314 94.5235 45.4927 94.6525 45.554C94.7941 45.6212 94.9375 45.6846 95.0832 45.7439C95.2151 45.797 95.3474 45.8483 95.4824 45.8941C95.6304 45.9451 95.7821 45.9875 95.9339 46.0302C96.0722 46.0678 96.2082 46.1095 96.3485 46.1398C96.5039 46.1736 96.6633 46.1943 96.8217 46.2187C96.9658 46.2404 97.1091 46.2645 97.2555 46.2794C97.4186 46.2949 97.584 46.2997 97.7495 46.3049C97.8332 46.3083 97.9156 46.3183 98.0003 46.3183C98.0697 46.3183 98.1366 46.309 98.2053 46.3069C98.3781 46.3021 98.5496 46.2962 98.7197 46.2807C98.8825 46.2659 99.0423 46.2397 99.202 46.2149C99.3846 46.1867 99.5664 46.157 99.7449 46.1153C99.9161 46.0764 100.086 46.0313 100.254 45.9799C100.452 45.9207 100.646 45.8493 100.837 45.7746C101.024 45.7005 101.207 45.6219 101.386 45.5351C101.604 45.4307 101.816 45.3169 102.022 45.1932C102.234 45.0661 102.439 44.9307 102.637 44.7853C102.897 44.5947 103.144 44.3869 103.38 44.166C103.654 43.9097 103.916 43.6392 104.153 43.347C105.212 42.0421 105.879 40.3953 105.989 38.5942C106 38.4212 106.015 38.2489 106.015 38.0725C106.014 37.8544 105.999 37.6404 105.983 37.4271ZM101.098 31.3566C101.24 31.4259 101.38 31.4955 101.517 31.574L100.395 34.4799C100.552 34.413 100.723 34.3762 100.899 34.3572L101.885 31.8049C102.02 31.8941 102.151 31.9886 102.281 32.0864L101.398 34.3696C101.541 34.3951 101.679 34.4341 101.808 34.4916L102.631 32.3614C102.759 32.4713 102.881 32.5888 103.001 32.7074L102.213 34.749C102.335 34.8489 102.444 34.9623 102.537 35.0908L103.325 33.0516C103.444 33.1853 103.56 33.3214 103.67 33.4637L102.818 35.669C102.868 35.8399 102.903 36.0174 102.903 36.2049C102.903 36.8978 102.533 37.495 101.989 37.8171L101.845 38.19C101.846 38.1504 101.851 38.1118 101.851 38.0721C101.851 38.0142 101.843 37.9577 101.84 37.9005C101.61 38.0084 101.358 38.0721 101.089 38.0721C100.086 38.0721 99.2734 37.2365 99.2734 36.2049C99.2734 35.5884 99.5667 35.0464 100.015 34.7059C99.9583 34.6697 99.9054 34.628 99.8464 34.5953L101.098 31.3566ZM100.27 31.0106C100.419 31.0613 100.566 31.1164 100.71 31.1767L99.4616 34.4082C99.3176 34.3476 99.1685 34.2979 99.0165 34.2552L100.27 31.0106ZM99.401 30.7725C99.5567 30.8042 99.7077 30.8466 99.8601 30.888L98.5951 34.1629C98.4357 34.1377 98.2743 34.1212 98.1092 34.1167L99.401 30.7725ZM98.4856 30.655C98.6487 30.6664 98.8102 30.6826 98.9703 30.7047L97.648 34.1294C97.4634 34.1467 97.2836 34.1794 97.1074 34.2225L98.4856 30.655ZM97.5251 30.6543C97.6825 30.6437 97.8392 30.6295 97.9997 30.6295C98.0124 30.6295 98.0251 30.6316 98.0372 30.6316L96.5856 34.3906C96.3642 34.4809 96.1529 34.5915 95.954 34.7207L97.5251 30.6543ZM91.8941 34.0988L90.8977 36.6773C91.0712 35.7438 91.4155 34.8744 91.8941 34.0988ZM90.7721 38.1876L92.8174 32.8907C93.0596 32.635 93.3202 32.4 93.5951 32.1815L90.8659 39.2496C90.8119 38.9022 90.7774 38.5483 90.7721 38.1876ZM91.253 40.7351C91.1656 40.5014 91.0899 40.2626 91.0259 40.019L94.2248 31.7356C94.4328 31.604 94.6478 31.4834 94.8685 31.3735L91.253 40.7351ZM91.4918 41.2988L95.4204 31.1271C95.6113 31.052 95.8046 30.9831 96.0029 30.9245L91.7815 41.8546C91.677 41.6744 91.5809 41.4893 91.4918 41.2988ZM92.0619 42.3112L96.5123 30.7898C96.6881 30.7515 96.869 30.7257 97.0502 30.7016L95.2888 35.2607C94.5858 35.9785 94.1501 36.9729 94.1501 38.0725C94.1501 38.1135 94.1548 38.1531 94.1561 38.1945L92.3907 42.7643C92.2755 42.6172 92.167 42.4666 92.0619 42.3112ZM93.067 43.5003C92.9427 43.3804 92.8228 43.2567 92.7069 43.1282L94.277 39.0645C94.3366 39.3019 94.4167 39.5311 94.5162 39.7489L93.067 43.5003ZM93.7914 44.1133C93.6601 44.0165 93.5275 43.9193 93.4029 43.8139L94.7821 40.2437C94.8822 40.4005 94.9937 40.548 95.1143 40.6885L93.7914 44.1133ZM94.5577 44.6161C94.418 44.5385 94.2854 44.45 94.1518 44.3632L95.4409 41.0255C95.5628 41.1372 95.6894 41.2437 95.8237 41.3384L94.5577 44.6161ZM95.3712 44.9986C95.2252 44.9393 95.0822 44.8755 94.9412 44.8073L96.1921 41.5689C96.3291 41.6444 96.4724 41.7088 96.6198 41.7667L95.3712 44.9986ZM96.2239 45.2784C96.0712 45.2387 95.9188 45.1991 95.7701 45.1491L97.0247 41.9004C97.1774 41.9414 97.3332 41.9738 97.4919 41.9959L96.2239 45.2784ZM97.1171 45.4541C96.957 45.4331 96.7986 45.409 96.6416 45.3786L97.935 42.0296C97.9571 42.031 97.9786 42.0338 98 42.0338C98.152 42.0338 98.3014 42.0224 98.4491 42.0048L97.1171 45.4541ZM98.0559 45.512C98.0368 45.512 98.0187 45.5154 98 45.5154C97.8516 45.5154 97.7059 45.5013 97.5596 45.492L98.9435 41.9097C99.1434 41.858 99.3383 41.7933 99.5245 41.7106L98.0559 45.512ZM99.049 45.4272C98.8748 45.4541 98.7 45.4744 98.5218 45.4879L100.106 41.3867C100.391 41.194 100.648 40.9632 100.874 40.7023L99.049 45.4272ZM100.101 45.1929C99.9167 45.2501 99.7292 45.2987 99.5393 45.3411L103.968 33.8741C104.078 34.0388 104.178 34.2104 104.275 34.3841L100.101 45.1929ZM101.246 44.7136C101.047 44.818 100.843 44.9121 100.633 44.9961L104.534 34.8982C104.629 35.1056 104.715 35.3176 104.792 35.5346L101.246 44.7136ZM102.536 43.8611C102.314 44.0461 102.079 44.2143 101.835 44.3707L104.993 36.1976C105.065 36.4819 105.121 36.772 105.161 37.068L102.536 43.8611ZM105.085 39.5432L104.132 42.0083C103.88 42.4214 103.588 42.807 103.264 43.1619L105.233 38.0625C105.233 38.0659 105.234 38.0694 105.234 38.0725C105.234 38.5766 105.18 39.0673 105.085 39.5432Z" fill="#029AA1"/>
<path d="M67.2884 60.6299H72.5966V62.7832H67.2884V65.2174H73.2942V67.3551H64.8921V55.9487H73.2942V58.0865H67.2884V60.6299ZM76.6157 70.5695L78.0565 67.043L74.4772 58.8042H77.101L79.2091 64.2656L81.1504 58.8042H83.7742L79.1181 70.5695H76.6157ZM87.0274 67.1523C86.3348 66.8714 85.7407 66.3955 85.2453 65.7245C84.7499 65.0536 84.5022 64.1771 84.5022 63.0953C84.5022 62.0134 84.7524 61.1396 85.2529 60.4738C85.7534 59.8081 86.3525 59.3348 87.0501 59.0539C87.7478 58.773 88.41 58.6326 89.0369 58.6326C89.7649 58.6326 90.4575 58.799 91.1147 59.1319C91.7719 59.4648 92.3103 59.9537 92.7299 60.5987C93.1495 61.2436 93.3694 62.0082 93.3896 62.8924C93.3896 63.1629 93.3846 63.3969 93.3745 63.5946C93.3644 63.7922 93.3542 63.9171 93.3441 63.9691H86.7619C86.8833 64.5724 87.1866 64.9833 87.6719 65.2018C88.1572 65.4202 88.6122 65.5295 89.0369 65.5295C89.5829 65.5295 90.0176 65.428 90.3412 65.2252C90.6647 65.0223 90.9428 64.7909 91.1753 64.5308L92.9346 65.5763C91.9842 66.9078 90.685 67.5736 89.0369 67.5736C88.3898 67.5736 87.72 67.4331 87.0274 67.1523ZM87.4899 61.1526C87.0956 61.4699 86.8732 61.8574 86.8226 62.3151H90.9934C90.963 62.0446 90.8619 61.7846 90.69 61.5349C90.5181 61.2852 90.2881 61.0798 90 60.9185C89.7118 60.7573 89.3857 60.6767 89.0217 60.6767C88.3949 60.6767 87.8843 60.8353 87.4899 61.1526ZM106.979 67.3551H104.567V61.9094L101.17 65.9664L97.7727 61.9094V67.3551H95.3613V55.5898L101.17 62.3307L106.979 55.5898V67.3551ZM115.714 66.4969C115.522 66.7674 115.191 67.0092 114.721 67.2225C114.251 67.4357 113.738 67.5424 113.182 67.5424C112.322 67.5424 111.577 67.3447 110.945 66.9494C110.313 66.5541 109.83 66.0158 109.496 65.3344C109.163 64.6531 108.996 63.8963 108.996 63.0641C108.996 62.2319 109.163 61.4751 109.496 60.7937C109.83 60.1123 110.313 59.574 110.945 59.1787C111.577 58.7834 112.322 58.5858 113.182 58.5858C113.758 58.5858 114.266 58.6872 114.706 58.89C115.146 59.0929 115.482 59.3504 115.714 59.6624V58.773H117.959V67.3551H115.714V66.4969ZM115.184 61.3086C114.769 60.8561 114.213 60.6299 113.515 60.6299C112.808 60.6299 112.249 60.8561 111.839 61.3086C111.43 61.7611 111.225 62.3463 111.225 63.0641C111.225 63.761 111.435 64.3384 111.855 64.7961C112.274 65.2538 112.828 65.4827 113.515 65.4827C114.223 65.4827 114.782 65.2668 115.191 64.8351C115.601 64.4034 115.805 63.8131 115.805 63.0641C115.805 62.3463 115.598 61.7611 115.184 61.3086ZM124.177 61.0122C123.743 61.1214 123.343 61.3789 122.979 61.7846C122.615 62.1903 122.433 62.7832 122.433 63.5634V67.3551H120.173V58.773H122.433V59.9121C122.807 59.4024 123.265 59.0565 123.806 58.8744C124.347 58.6924 124.84 58.6066 125.284 58.617V60.8951C124.981 60.8639 124.612 60.9029 124.177 61.0122ZM129.44 64.2968C129.44 64.6609 129.501 64.9651 129.622 65.2096C129.743 65.4541 130.026 65.5763 130.471 65.5763C130.674 65.5763 130.866 65.5659 131.048 65.5451V67.5112C130.684 67.5528 130.345 67.5736 130.032 67.5736C129.384 67.5736 128.861 67.519 128.462 67.4097C128.062 67.3005 127.751 67.0899 127.529 66.7778C127.307 66.4657 127.195 66.0184 127.195 65.4358V60.6767H126.179V58.6326H127.195V56.3388H129.44V58.6326H131.108V60.6767H129.44V64.2968Z" fill="#2B2B2B"/>
<path d="M69.2542 72.5975V72.8418H67.8017V73.8679H69.1632V74.1122H67.8017V75.236H69.3175V75.4803H67.5405V72.5975H69.2542ZM71.0239 72.5975L71.8708 73.9656L72.7375 72.5975H73.0304L72.0014 74.2384V75.4803H71.7402V74.2384L70.7112 72.5975H71.0239ZM76.3356 72.5975V72.8418H74.8832V73.8679H76.2446V74.1122H74.8832V75.236H76.3989V75.4803H74.622V72.5975H76.3356ZM81.7271 72.5242C82.1414 72.5242 82.4632 72.6748 82.6928 72.9761L82.4791 73.1594C82.3999 73.0372 82.2944 72.9415 82.1625 72.8723C82.0305 72.8031 81.8854 72.7685 81.7271 72.7685C81.3788 72.7685 81.0952 72.8866 80.8762 73.1227C80.6572 73.3589 80.5451 73.6643 80.5398 74.0389C80.5398 74.4108 80.65 74.7141 80.8703 74.9489C81.0906 75.1837 81.3762 75.3039 81.7271 75.3093C81.8775 75.3093 82.0305 75.2706 82.1862 75.1932C82.3419 75.1159 82.4646 75.0053 82.5543 74.8614L82.768 75.0283C82.52 75.3785 82.173 75.5536 81.7271 75.5536C81.2944 75.5509 80.9468 75.407 80.6843 75.122C80.4218 74.837 80.2865 74.4759 80.2786 74.0389C80.2786 73.5964 80.4138 73.2347 80.6843 72.9537C80.9547 72.6728 81.3023 72.5296 81.7271 72.5242ZM84.8068 74.4705H86.093L85.4598 72.8906L84.8068 74.4705ZM85.6062 72.5975L86.7856 75.4803H86.4927L86.188 74.7148H84.7039L84.3873 75.4803H84.1142L85.3371 72.5975H85.6062ZM89.2558 73.8679C89.4589 73.8679 89.6159 73.821 89.7267 73.7274C89.8375 73.6337 89.8929 73.5095 89.8929 73.3548C89.8929 73.2001 89.8389 73.0766 89.7307 72.9843C89.6225 72.892 89.4616 72.8445 89.2478 72.8418H88.6819V73.8679H89.2558ZM89.1766 72.5975C89.823 72.5975 90.1489 72.8499 90.1541 73.3548C90.1541 73.781 89.9154 74.028 89.4378 74.0959L90.2531 75.4803H89.9563L89.1687 74.1122H88.6819V75.4803H88.4207V72.5975H89.1766ZM93.7127 72.5975V72.8418H92.2602V73.8679H93.6216V74.1122H92.2602V75.236H93.776V75.4803H91.999V72.5975H93.7127ZM98.0989 72.5975V75.4803H97.8377V72.5975H98.0989ZM100.435 72.5975L102.14 75.122H102.148V72.5975H102.409V75.4803H102.073L100.367 72.9558H100.359V75.4803H100.098V72.5975H100.435ZM106.998 74.4705H108.284L107.651 72.8906L106.998 74.4705ZM107.797 72.5975L108.976 75.4803H108.683L108.379 74.7148H106.895L106.578 75.4803H106.305L107.528 72.5975H107.797ZM114.138 72.5242C114.553 72.5242 114.874 72.6748 115.104 72.9761L114.89 73.1594C114.811 73.0372 114.706 72.9415 114.574 72.8723C114.442 72.8031 114.297 72.7685 114.138 72.7685C113.79 72.7685 113.506 72.8866 113.287 73.1227C113.068 73.3589 112.956 73.6643 112.951 74.0389C112.951 74.4108 113.061 74.7141 113.281 74.9489C113.502 75.1837 113.787 75.3039 114.138 75.3093C114.289 75.3093 114.442 75.2706 114.597 75.1932C114.753 75.1159 114.876 75.0053 114.965 74.8614L115.179 75.0283C114.931 75.3785 114.584 75.5536 114.138 75.5536C113.706 75.5509 113.358 75.407 113.095 75.122C112.833 74.837 112.698 74.4759 112.69 74.0389C112.69 73.5964 112.825 73.2347 113.095 72.9537C113.366 72.6728 113.714 72.5296 114.138 72.5242ZM117.151 72.5975V75.236H118.457V75.4803H116.889V72.5975H117.151ZM120.361 72.5975V75.4803H120.1V72.5975H120.361ZM123.627 72.5242C124.041 72.5242 124.363 72.6748 124.592 72.9761L124.379 73.1594C124.299 73.0372 124.194 72.9415 124.062 72.8723C123.93 72.8031 123.785 72.7685 123.627 72.7685C123.278 72.7685 122.995 72.8866 122.776 73.1227C122.557 73.3589 122.445 73.6643 122.439 74.0389C122.439 74.4108 122.549 74.7141 122.77 74.9489C122.99 75.1837 123.276 75.3039 123.627 75.3093C123.777 75.3093 123.93 75.2706 124.086 75.1932C124.241 75.1159 124.364 75.0053 124.454 74.8614L124.667 75.0283C124.419 75.3785 124.072 75.5536 123.627 75.5536C123.194 75.5509 122.846 75.407 122.584 75.122C122.321 74.837 122.186 74.4759 122.178 74.0389C122.178 73.5964 122.313 73.2347 122.584 72.9537C122.854 72.6728 123.202 72.5296 123.627 72.5242ZM126.639 72.5975V73.8679H126.663L128.02 72.5975H128.38L126.963 73.9167L128.459 75.4803H128.083L126.663 73.99H126.639V75.4803H126.378V72.5975H126.639Z" fill="#2B2B2B"/>
</svg>
