<svg width="196" height="100" viewBox="0 0 196 100" fill="none" xmlns="http://www.w3.org/2000/svg">
<path d="M97.5149 36.5639C97.1676 36.6074 96.707 36.7689 96.3935 36.9571C95.6868 37.3815 95.2647 37.9869 95.0597 38.8672L95.0091 39.0915L95.0018 44.6145C94.997 47.6751 95.0018 50.1255 95.0139 50.1134C95.026 50.099 95.0549 50.0363 95.079 49.9711C95.1514 49.7734 95.3901 49.443 95.6072 49.2404C95.9497 48.9196 96.3669 48.7074 96.8662 48.594C97.0085 48.5627 97.1291 48.5289 97.1363 48.5217C97.1435 48.5144 97.1339 48.4951 97.1122 48.4782C97.0398 48.4204 96.9723 48.2974 96.9361 48.1575C96.9072 48.0465 96.8999 47.8656 96.8999 47.3158V46.6163L97.9949 45.5214L99.0899 44.4288L99.0995 47.5352C99.1067 49.2452 99.1019 50.7622 99.0899 50.9093C99.044 51.4737 98.9138 51.8186 98.6364 52.1128C98.4459 52.313 98.2433 52.4408 97.9732 52.5301C97.8092 52.5855 97.7368 52.5952 97.4908 52.5952C97.0278 52.5976 96.6949 52.477 96.4248 52.2093C96.2463 52.0332 96.1836 51.8716 96.2126 51.6546C96.2415 51.4255 96.3573 51.3169 96.6829 51.2084C96.9216 51.1288 97.0495 51.0565 97.1556 50.9407C97.3003 50.7839 97.3461 50.644 97.3461 50.3546C97.3461 50.1303 97.3413 50.1014 97.2665 49.9519C97.1797 49.7758 97.0591 49.6552 96.8782 49.566C96.7818 49.5177 96.7311 49.5105 96.4899 49.5105C96.227 49.5105 96.2053 49.5153 96.0558 49.5877C95.6844 49.7686 95.4336 50.1544 95.354 50.6561C95.3178 50.89 95.3395 51.3917 95.395 51.5967C95.5976 52.3588 96.1547 52.9545 96.9482 53.2536C97.2714 53.3766 97.5825 53.4321 98.0214 53.4466C98.4869 53.461 98.7064 53.4321 99.0657 53.3043C100.035 52.9642 100.694 52.2117 100.932 51.1674L100.986 50.9335L100.993 45.3984L101 39.8657L100.867 40.1286C100.573 40.7122 100.103 41.1078 99.4323 41.3321C99.2924 41.3779 99.1067 41.4285 99.0175 41.4454C98.9259 41.4623 98.8535 41.4816 98.8535 41.4913C98.8535 41.5009 98.88 41.5323 98.9114 41.5612C98.9427 41.5925 98.9958 41.6721 99.0271 41.7397C99.0802 41.8603 99.0826 41.894 99.0899 42.5163L99.0971 43.1675L98.0021 44.2624L96.9048 45.3574L96.8951 42.3812C96.8855 39.446 96.8927 39.0167 96.9602 38.696C97.0856 38.1003 97.4354 37.6878 97.978 37.4997C98.6244 37.2754 99.4492 37.4997 99.7097 37.9724C99.77 38.0834 99.782 38.1292 99.782 38.2715C99.7796 38.5754 99.7 38.6622 99.2876 38.8142C98.8969 38.9564 98.7667 39.0746 98.6798 39.352C98.6171 39.5618 98.6268 39.8536 98.704 40.0249C98.7787 40.1937 98.95 40.3649 99.1188 40.4397C99.6229 40.6664 100.211 40.418 100.481 39.8681C100.624 39.5739 100.65 39.434 100.648 38.9709C100.645 38.5971 100.641 38.5416 100.583 38.3487C100.33 37.5238 99.7121 36.9474 98.7956 36.6821C98.4338 36.576 97.8454 36.5229 97.5149 36.5639Z" fill="black"/>
<g clip-path="url(#clip0_101_160)">
<path d="M121.372 55.5014C119.78 55.637 118.686 56.6663 118.26 58.4207C118.153 58.8745 118.149 60.0253 118.251 60.4464C118.519 61.5084 119.043 62.2335 119.903 62.7388C121.197 63.5014 123.104 63.3002 124.113 62.299C125.122 61.2932 125.552 59.492 125.135 57.9949C124.748 56.5961 123.632 55.6183 122.308 55.5154C122.147 55.5014 121.955 55.4873 121.883 55.4827C121.815 55.4733 121.585 55.4827 121.372 55.5014ZM122.151 55.9879C122.832 56.1657 123.407 56.6943 123.752 57.4663C124.071 58.1821 124.13 58.5049 124.135 59.5201C124.139 60.2218 124.122 60.4464 124.058 60.7131C123.734 62.0417 122.977 62.7481 121.878 62.7481C120.682 62.7481 119.809 61.892 119.426 60.3575C119.345 60.016 119.333 59.8522 119.328 59.1224C119.328 58.3879 119.341 58.2335 119.426 57.9154C119.699 56.8721 120.269 56.1984 121.044 55.9926C121.368 55.9037 121.823 55.9037 122.151 55.9879Z" fill="black"/>
<path d="M85.9524 55.5576C85.8885 55.5997 85.3649 55.6184 83.9643 55.6277L82.0571 55.6418V55.7728C82.0571 55.8991 82.0656 55.9038 82.3126 55.9318C82.6106 55.9599 82.7468 56.0441 82.8532 56.2593C82.9256 56.3997 82.9298 56.6242 82.9298 59.3564C82.9298 62.0885 82.9256 62.3131 82.8532 62.4535C82.7468 62.6687 82.6106 62.7529 82.3126 62.7809C82.0656 62.809 82.0571 62.8137 82.0571 62.94V63.0757L84.2368 63.0663L86.4164 63.0523L86.5314 62.3505C86.5952 61.9622 86.6506 61.6254 86.6506 61.5973C86.6548 61.5646 86.5995 61.5318 86.5271 61.5225C86.4079 61.5038 86.3951 61.5131 86.3313 61.7377C86.2249 62.1026 86.1525 62.2289 86.0035 62.3271C85.88 62.4114 85.7821 62.4207 84.8413 62.4207H83.8111L83.8707 62.2476C83.9516 61.995 83.9516 59.6652 83.8707 59.4125L83.8111 59.2394H84.5433C85.4926 59.2394 85.5522 59.2675 85.6501 59.7634C85.6714 59.8616 85.7012 59.8944 85.7821 59.8944H85.8885V58.954V58.0184L85.7736 58.0324C85.6757 58.0464 85.6501 58.0745 85.6289 58.2195C85.5991 58.4441 85.4926 58.5704 85.2968 58.6312C85.1137 58.6874 83.8026 58.6967 83.8026 58.6406C83.8026 58.6219 83.8281 58.5751 83.8579 58.547C83.892 58.5049 83.9132 58.2149 83.9218 57.5365C83.9345 56.7552 83.926 56.554 83.8707 56.409C83.8324 56.3108 83.8026 56.2266 83.8026 56.2172C83.8026 56.1704 85.2925 56.2125 85.4628 56.2593C85.6161 56.3061 85.6672 56.3482 85.7268 56.4792C85.7693 56.5681 85.8034 56.7131 85.8034 56.7926C85.8034 56.933 85.8162 56.947 85.9311 56.947C86.0035 56.947 86.0588 56.9236 86.0588 56.8862C86.0588 56.8581 86.0886 56.5681 86.1227 56.2453C86.1567 55.9225 86.1865 55.6231 86.1865 55.5763C86.1865 55.4827 86.0759 55.4733 85.9524 55.5576Z" fill="black"/>
<path d="M140.359 55.5576C140.295 55.5997 139.771 55.6184 138.371 55.6277L136.463 55.6418V55.7728C136.463 55.8991 136.472 55.9038 136.719 55.9318C137.017 55.9599 137.153 56.0441 137.259 56.2593C137.332 56.3997 137.336 56.6242 137.336 59.3564C137.336 62.0885 137.332 62.3131 137.259 62.4535C137.153 62.6687 137.017 62.7529 136.719 62.7809C136.472 62.809 136.463 62.8137 136.463 62.94V63.0757L138.643 63.0663L140.827 63.0523L140.942 62.3505C141.006 61.9622 141.057 61.6254 141.057 61.5973C141.061 61.5646 141.001 61.5318 140.933 61.5225C140.814 61.5038 140.801 61.5131 140.759 61.6909C140.682 61.9997 140.554 62.2289 140.41 62.3271C140.286 62.4114 140.193 62.4207 139.243 62.4207H138.213L138.277 62.257C138.362 62.0324 138.362 59.6792 138.277 59.4125L138.217 59.2394H138.937C139.886 59.2394 139.984 59.2815 140.056 59.7166C140.082 59.8757 140.099 59.8944 140.21 59.8944H140.337V58.9587V58.0231H140.214C140.116 58.0231 140.086 58.0464 140.065 58.1494C139.963 58.6312 139.861 58.678 138.911 58.678H138.213L138.277 58.5096C138.362 58.285 138.349 56.4277 138.264 56.3295C138.234 56.3014 138.209 56.2546 138.209 56.2359C138.209 56.1798 139.652 56.1985 139.869 56.2593C140.022 56.3061 140.073 56.3482 140.133 56.4792C140.176 56.5681 140.21 56.7131 140.21 56.7926C140.21 56.933 140.222 56.947 140.337 56.947C140.41 56.947 140.465 56.933 140.465 56.9096C140.465 56.8909 140.495 56.6149 140.529 56.2921C140.563 55.9693 140.593 55.6605 140.593 55.5997C140.593 55.4827 140.495 55.464 140.359 55.5576Z" fill="black"/>
<path d="M48.5109 55.7073C48.5109 55.8149 48.5236 55.8242 48.728 55.8242C49.0558 55.8242 49.2771 55.9131 49.3665 56.0769C49.4432 56.2125 49.4474 56.3716 49.4474 58.8418C49.4474 61.7377 49.4432 61.7891 49.1792 62.2757C49.0047 62.5985 48.6471 62.926 48.2852 63.0991C48.0553 63.2114 48 63.2581 48 63.3424C48 63.464 48.0468 63.4593 48.6386 63.2769C49.4857 63.0195 50.0477 62.5798 50.3116 61.9669L50.4479 61.6488L50.4691 58.926C50.4904 56.2546 50.4904 56.2032 50.5798 56.0722C50.6905 55.9084 50.8863 55.8289 51.2056 55.8289C51.4355 55.8242 51.4483 55.8195 51.4483 55.7073V55.5903H49.9796H48.5109V55.7073Z" fill="black"/>
<path d="M53.6621 55.7213C53.6621 55.8477 53.6749 55.8523 53.9431 55.9038C54.2198 55.9553 54.3475 56.0395 54.4412 56.2219C54.4795 56.2874 54.5008 57.064 54.5178 58.8652C54.5433 61.5974 54.5391 61.5506 54.769 62.0465C54.8882 62.3038 55.1904 62.6593 55.4458 62.8418C56.2206 63.3845 57.6425 63.3751 58.4088 62.8231C58.7026 62.6126 59.0048 62.271 59.1538 61.981L59.2815 61.7424V62.4067V63.0757H60.1542H61.0269V62.9447C61.0269 62.8184 61.0142 62.8137 60.746 62.7623C60.4224 62.7015 60.2819 62.5845 60.2138 62.3319C60.1883 62.2196 60.1755 61.1529 60.184 59.2301C60.1968 56.3436 60.1968 56.2968 60.2862 56.1658C60.4011 55.9974 60.5459 55.9225 60.8141 55.8851C61.0142 55.8617 61.0269 55.8477 61.0269 55.726V55.5903H59.7285H58.4301V55.726C58.4301 55.857 58.4429 55.8664 58.6344 55.8991C58.941 55.9459 59.0985 56.0348 59.1836 56.2079C59.2517 56.3482 59.2602 56.5354 59.273 58.3974C59.2858 60.643 59.2688 60.8769 59.0559 61.3167C58.6557 62.1447 57.8639 62.6172 56.9827 62.5471C56.2249 62.4909 55.7226 61.9903 55.5523 61.1155C55.4799 60.7365 55.4671 56.6149 55.5352 56.3295C55.6034 56.0722 55.7864 55.9272 56.0887 55.8898C56.3356 55.8617 56.3441 55.8523 56.3441 55.726V55.5903H55.0031H53.6621V55.7213Z" fill="black"/>
<path d="M63.2407 55.726C63.2407 55.871 63.3003 55.9178 63.5004 55.9178C63.7005 55.9178 63.9133 56.0394 64.007 56.2078C64.0879 56.3576 64.0921 56.4371 64.0921 59.3564C64.0921 62.2383 64.0879 62.3552 64.007 62.5002C63.9006 62.6921 63.8112 62.7435 63.4962 62.7809C63.2492 62.809 63.2407 62.8137 63.2407 62.9447V63.0757L65.5268 63.0663L67.8129 63.0523L67.9108 62.2616C68.013 61.4289 68.0087 61.3962 67.8299 61.3915C67.7831 61.3915 67.7448 61.4383 67.7277 61.5225C67.6085 62.1073 67.5447 62.2476 67.3574 62.3599C67.2382 62.4301 67.0636 62.4441 66.0845 62.4581L64.9478 62.4769L65.033 62.2991C65.1096 62.126 65.1139 61.9997 65.1139 59.2769C65.1139 56.2546 65.1139 56.2406 65.3139 56.0441C65.3821 55.9786 65.7609 55.871 65.9355 55.871C65.9525 55.871 65.9653 55.8055 65.9653 55.7307V55.5903H64.603H63.2407V55.726Z" fill="black"/>
<path d="M70.1797 55.726C70.1797 55.871 70.1839 55.8757 70.5926 55.9412C70.8097 55.9786 70.9715 56.1424 71.0311 56.3903C71.0609 56.5073 71.0737 57.5786 71.0652 59.464L71.0524 62.3599L70.9332 62.5283C70.8097 62.7108 70.6182 62.795 70.3415 62.795C70.1925 62.795 70.1797 62.8043 70.1797 62.9353V63.0757H72.47H74.7604L74.8583 62.2757C74.9604 61.4289 74.9562 61.3962 74.7689 61.3915C74.7178 61.3915 74.688 61.457 74.6539 61.6347C74.5773 62.0231 74.4581 62.2663 74.3006 62.3599C74.1771 62.4347 74.0239 62.4441 73.0447 62.4581C72.4275 62.4675 71.9251 62.4675 71.9251 62.4535C71.9251 62.4394 71.9549 62.3693 71.989 62.2991C72.0443 62.1821 72.0528 61.7517 72.0528 59.333C72.0528 57.6067 72.0699 56.4371 72.0954 56.3342C72.1593 56.0862 72.2997 55.9693 72.5892 55.9178C72.7255 55.8897 72.8532 55.871 72.8745 55.871C72.8915 55.871 72.9043 55.8055 72.9043 55.7307V55.5903H71.542H70.1797V55.726Z" fill="black"/>
<path d="M88.8257 55.726C88.8257 55.8523 88.8385 55.8616 89.0471 55.8897C89.3663 55.9365 89.5324 56.0301 89.6218 56.2078C89.6941 56.3529 89.6984 56.5494 89.6984 59.333C89.6984 62.0839 89.6941 62.3131 89.6218 62.4535C89.5281 62.6453 89.3834 62.7295 89.0683 62.7716C88.8342 62.8043 88.8257 62.8137 88.8257 62.94V63.0757H90.0603H91.2948V62.9447C91.2948 62.8184 91.2863 62.8137 90.9755 62.7622C90.6052 62.7061 90.4817 62.6312 90.3838 62.4067C90.3242 62.257 90.3157 61.995 90.3242 59.8429L90.337 57.4476L92.7976 60.3576C94.4451 62.3038 95.2838 63.2628 95.3391 63.2628C95.4242 63.2628 95.4242 63.216 95.4242 59.8476C95.4242 56.1423 95.42 56.2266 95.6584 56.0207C95.7307 55.9599 95.867 55.9084 96.0245 55.8897C96.2671 55.8616 96.2757 55.8523 96.2757 55.726V55.5903H95.105H93.9342V55.726C93.9342 55.857 93.947 55.8616 94.1599 55.8944C94.4621 55.9412 94.6239 56.0301 94.7218 56.2125C94.8027 56.3529 94.807 56.4839 94.8282 58.7295C94.8453 60.657 94.8623 61.1108 94.9091 61.1763C94.9432 61.2184 94.9602 61.2605 94.9517 61.2698C94.9432 61.2792 93.8576 60.0067 92.5379 58.4394L90.1411 55.5903H89.4855H88.8257V55.726Z" fill="black"/>
<path d="M102.662 55.6652C102.398 55.7447 102.07 55.9599 101.921 56.1564C101.542 56.6523 101.619 57.3728 102.13 58.0979C102.236 58.2476 102.321 58.3786 102.321 58.3927C102.317 58.4067 102.21 58.4956 102.074 58.5845C101.942 58.6734 101.665 58.926 101.461 59.1459C101.031 59.609 100.827 60.0207 100.737 60.5821C100.631 61.2886 100.84 62.0324 101.265 62.4394C101.725 62.8839 102.291 63.0897 103.045 63.0897C103.849 63.0897 104.428 62.8511 104.96 62.2991L105.233 62.009L105.586 62.3973C106.344 63.2348 106.974 63.333 107.745 62.7295C108.051 62.4862 108.102 62.4067 108.026 62.2804C107.992 62.2196 107.966 62.2196 107.847 62.2991C107.213 62.7108 106.961 62.678 106.425 62.1307C106.17 61.8687 105.684 61.2511 105.684 61.1856C105.684 61.1716 105.897 60.6242 106.157 59.9786C106.506 59.0991 106.668 58.7529 106.778 58.6219C106.957 58.4207 107.315 58.2336 107.728 58.126C108.009 58.0558 108.026 58.0418 108.026 57.9202C108.026 57.7985 108.017 57.7892 107.911 57.8219C107.843 57.8453 107.281 57.8593 106.651 57.8593H105.514V57.9623C105.514 58.0465 105.552 58.0699 105.744 58.1166C105.986 58.1728 106.152 58.3038 106.152 58.4441C106.152 58.5424 105.344 60.5962 105.305 60.5962C105.293 60.5962 105.127 60.3716 104.939 60.1003C104.752 59.8289 104.33 59.319 104.003 58.9634L103.407 58.3131L103.59 58.1868C104.164 57.7845 104.492 57.2558 104.492 56.7272C104.492 56.3669 104.394 56.133 104.164 55.9225C103.837 55.6231 103.181 55.5108 102.662 55.6652ZM103.304 55.9693C103.7 56.119 103.892 56.5962 103.764 57.1108C103.73 57.2465 103.628 57.3962 103.394 57.6441L103.075 57.995L102.93 57.8079C102.334 57.05 102.317 56.2125 102.896 55.988C103.109 55.9038 103.126 55.9038 103.304 55.9693ZM103.726 59.9225C103.947 60.1798 104.301 60.6336 104.509 60.933L104.888 61.4851L104.765 61.6769C104.492 62.112 104.041 62.4535 103.607 62.5564C103.326 62.6219 102.9 62.5564 102.619 62.4114C102.181 62.1775 101.797 61.5412 101.729 60.9471C101.648 60.1751 101.917 59.4687 102.479 58.9868L102.674 58.8184L102.998 59.1412C103.177 59.319 103.505 59.6699 103.726 59.9225Z" fill="black"/>
<path d="M113.007 55.7072C113.007 55.8148 113.019 55.8242 113.232 55.8242C113.539 55.8242 113.752 55.8991 113.858 56.0441C113.943 56.161 113.943 56.2172 113.943 58.8745C113.943 61.485 113.939 61.5926 113.854 61.8686C113.671 62.4722 113.202 62.9774 112.658 63.1692C112.53 63.2113 112.496 63.2488 112.496 63.3377C112.496 63.464 112.453 63.4686 113.07 63.3002C113.56 63.1692 114.13 62.8605 114.42 62.5657C114.705 62.2803 114.901 61.878 114.965 61.4616C114.99 61.3026 115.007 60.1002 115.007 58.7014C115.007 56.3295 115.012 56.2172 115.093 56.0722C115.186 55.8991 115.378 55.8242 115.744 55.8242C115.974 55.8242 115.987 55.8195 115.987 55.7072V55.5903H114.497H113.007V55.7072Z" fill="black"/>
<path d="M128.43 55.623L127.48 55.637V55.8008C127.48 55.9645 127.48 55.9645 127.672 55.9645C127.936 55.9645 128.145 56.0674 128.247 56.2546C128.328 56.4043 128.332 56.4838 128.332 59.4078V62.4066L128.234 62.5657C128.128 62.7434 127.936 62.837 127.664 62.837C127.489 62.8417 127.48 62.8464 127.48 62.982V63.1224H128.779H130.077V62.982C130.077 62.8557 130.065 62.8417 129.95 62.8417C129.737 62.8417 129.486 62.7013 129.405 62.5423C129.341 62.4113 129.328 62.1072 129.311 59.3563C129.298 57.6815 129.273 56.2686 129.251 56.2125C129.217 56.1189 129.234 56.1142 129.588 56.0815C130.703 55.9785 131.286 56.4417 131.346 57.485C131.363 57.7984 131.346 57.9341 131.274 58.2101C131.193 58.5002 131.142 58.5891 130.937 58.8136C130.678 59.099 130.328 59.3189 129.941 59.4546C129.762 59.5154 129.694 59.5622 129.694 59.6183C129.694 59.6885 129.741 59.7072 129.975 59.7165L130.256 59.7306L130.72 60.6195C131.695 62.4861 132.014 62.851 132.866 63.099C133.121 63.1739 134.113 63.2066 134.207 63.1458C134.228 63.1317 134.249 63.0663 134.249 63.0008C134.249 62.9025 134.232 62.8885 134.092 62.8885C133.828 62.8885 133.636 62.8043 133.351 62.5703C132.981 62.2663 132.632 61.7891 131.908 60.6054L131.291 59.5902L131.099 59.5762L130.912 59.5622L131.163 59.4499C131.699 59.2066 132.078 58.8323 132.308 58.3037C132.432 58.0183 132.44 57.9668 132.44 57.4616C132.44 57.0078 132.427 56.8908 132.351 56.7084C132.159 56.2546 131.661 55.885 131.005 55.7025C130.703 55.6183 129.941 55.5949 128.43 55.623Z" fill="black"/>
<path d="M143.275 55.726C143.275 55.8757 143.296 55.8897 143.624 55.9412C143.862 55.9739 144.02 56.133 144.083 56.3903C144.113 56.5073 144.126 57.5786 144.117 59.464C144.105 62.1353 144.1 62.3646 144.028 62.4815C143.913 62.6733 143.768 62.7529 143.487 62.7809C143.24 62.809 143.232 62.8137 143.232 62.94V63.0757H145.522H147.813L147.911 62.2757C147.991 61.6067 148 61.4663 147.953 61.4336C147.813 61.34 147.757 61.3868 147.702 61.6581C147.63 62.0324 147.51 62.2663 147.349 62.3599C147.229 62.4347 147.063 62.4441 146.093 62.4581L144.969 62.4769L145.028 62.3646C145.071 62.2804 145.088 61.6441 145.105 59.3096C145.131 56.0488 145.118 56.1564 145.403 56.002C145.484 55.9552 145.641 55.9084 145.756 55.8944C145.944 55.8663 145.956 55.857 145.956 55.726V55.5903H144.616H143.275V55.726Z" fill="black"/>
<path d="M77.1611 55.7774C77.1611 55.9131 77.1696 55.9178 77.3527 55.9178C77.6166 55.9178 77.8252 56.0207 77.9274 56.2078C78.0083 56.3576 78.0126 56.4371 78.0126 59.3236C78.0126 62.6687 78.0253 62.5424 77.706 62.7014C77.6039 62.7529 77.4421 62.795 77.3442 62.795C77.1696 62.795 77.1611 62.7997 77.1611 62.9353V63.0757H78.5234H79.8857V62.9353C79.8857 62.7997 79.8772 62.795 79.7069 62.7903C79.4387 62.7856 79.2386 62.6921 79.1322 62.5143L79.0343 62.3599V59.3611C79.0343 57.0733 79.047 56.3342 79.0896 56.25C79.179 56.0535 79.3536 55.9505 79.6303 55.9271C79.8772 55.9084 79.8857 55.9038 79.8857 55.7728V55.6371H78.5234H77.1611V55.7774Z" fill="black"/>
</g>
<defs>
<clipPath id="clip0_101_160">
<rect width="100" height="8" fill="white" transform="translate(48 55.45)"/>
</clipPath>
</defs>
</svg>
