<svg width="196" height="100" viewBox="0 0 196 100" fill="none" xmlns="http://www.w3.org/2000/svg">
<path d="M87.5486 33.1447C89.5358 33.2294 91.5361 33.2914 93.5429 33.324C100.278 41.0507 109.003 43.799 116.779 44.9923C115.51 46.6484 114.234 48.2688 112.958 49.8728C100.271 47.3787 91.9897 39.8737 87.5486 33.1447Z" fill="#029AA1"/>
<path d="M126.5 31.2538C123.873 35.3421 121.214 39.0978 118.535 42.671C107.14 43.0134 99.1715 38.4295 94.241 33.3338C105.009 33.4838 115.999 32.8741 126.5 31.2538Z" fill="#029AA1"/>
<path d="M80.7283 32.7534C82.784 32.9001 84.8594 33.024 86.951 33.1186C92.5994 43.5088 101.208 49.0642 110.113 53.4199C109.202 54.5512 108.288 55.6792 107.375 56.8105C94.4203 51.4931 85.9166 42.7166 80.7283 32.7534Z" fill="#029AA1"/>
<path d="M69.5 31.6776C72.8838 32.0819 76.359 32.4242 79.8963 32.6915C86.0798 46.5931 94.7956 55.1055 103.28 61.9226C101.521 64.1395 99.7653 66.4021 98.013 68.7462C88.2204 57.9516 78.5421 47.8059 69.5 31.6776Z" fill="#029AA1"/>
</svg>
